<svg width="800" height="450" xmlns="http://www.w3.org/2000/svg">
  <rect width="800" height="450" fill="#1a1a1a"/>
  <rect x="50" y="50" width="230" height="160" rx="8" fill="#2a2a2a"/>
  <rect x="70" y="70" width="190" height="30" rx="4" fill="#12a116" opacity="0.3"/>
  <text x="165" y="92" font-family="Arial, sans-serif" font-size="16" fill="#fff" text-anchor="middle">TTS Plugin</text>
  <rect x="70" y="110" width="190" height="40" rx="4" fill="#333"/>
  <circle cx="90" cy="130" r="10" fill="#12a116"/>
  <text x="110" y="135" font-family="Arial, sans-serif" font-size="12" fill="#aaa">75+ Stimmen</text>
  <rect x="300" y="50" width="230" height="160" rx="8" fill="#2a2a2a"/>
  <rect x="320" y="70" width="190" height="30" rx="4" fill="#4ade80" opacity="0.3"/>
  <text x="415" y="92" font-family="Arial, sans-serif" font-size="16" fill="#fff" text-anchor="middle">Soundboard</text>
  <rect x="320" y="110" width="190" height="40" rx="4" fill="#333"/>
  <circle cx="340" cy="130" r="10" fill="#4ade80"/>
  <text x="360" y="135" font-family="Arial, sans-serif" font-size="12" fill="#aaa">100.000+ Sounds</text>
  <rect x="550" y="50" width="230" height="160" rx="8" fill="#2a2a2a"/>
  <rect x="570" y="70" width="190" height="30" rx="4" fill="#fbbf24" opacity="0.3"/>
  <text x="665" y="92" font-family="Arial, sans-serif" font-size="16" fill="#fff" text-anchor="middle">OSC-Bridge</text>
  <rect x="570" y="110" width="190" height="40" rx="4" fill="#333"/>
  <circle cx="590" cy="130" r="10" fill="#fbbf24"/>
  <text x="610" y="135" font-family="Arial, sans-serif" font-size="12" fill="#aaa">VRChat Integration</text>
  <text x="400" y="340" font-family="Arial, sans-serif" font-size="24" fill="#666" text-anchor="middle">Plugin Manager Screenshot</text>
  <text x="400" y="370" font-family="Arial, sans-serif" font-size="14" fill="#555" text-anchor="middle">Replace with real plugins.png</text>
</svg>
